<svg width="300" height="238" viewBox="0 0 300 238" fill="none" xmlns="http://www.w3.org/2000/svg">
<path d="M184 107.742C192.667 112.745 192.667 125.255 184 130.258L141.25 154.94C132.583 159.944 121.75 153.689 121.75 143.682L121.75 94.3183C121.75 84.3109 132.583 78.0562 141.25 83.0599L184 107.742Z" fill="oklch(62.7% 0.265 303.9)"/>
<path d="M232.5 24C255.972 24 275 43.0279 275 66.5V81.3564L250 98.4482V66.5C250 56.835 242.165 49 232.5 49H66.5C56.835 49 49 56.835 49 66.5V171.5C49 181.165 56.835 189 66.5 189H117.552L80.9844 214H66.5C43.0279 214 24 194.972 24 171.5V66.5C24 43.0279 43.0279 24 66.5 24H232.5ZM275 171.5C275 194.972 255.972 214 232.5 214H151.858L188.426 189H232.5C242.165 189 250 181.165 250 171.5V146.902L275 129.811V171.5Z" fill="oklch(62.7% 0.265 303.9)"/>
<path d="M264.16 137.222C271.35 142.702 275.992 151.355 275.992 161.094V184.094C275.992 200.662 262.561 214.094 245.992 214.094H211.992C198.366 214.094 186.864 205.009 183.207 192.566L264.16 137.222Z" fill="oklch(62.7% 0.265 303.9)"/>
</svg>
